<svg width="88" height="24" viewBox="0 0 88 24" fill="none" xmlns="http://www.w3.org/2000/svg">
<path fill-rule="evenodd" clip-rule="evenodd" d="M21.2532 22.9205L22.1773 23.8658V0.735819L11.0886 12.0803L0 0.735819V23.8658L0.924053 22.9205V3.01362L1.7865 3.89596L2.40254 4.52621L3.26499 5.40855V20.5255L3.88102 19.8953V6.03879L4.74347 6.92114V19.013L5.35951 18.3827V7.55138L6.22195 8.43372V17.5004L6.83799 16.8701V9.06397L7.70044 9.94631V15.9878L8.31647 15.3575V10.5766L9.17892 11.4589V14.4752L9.79496 13.845V12.0891L11.0886 13.4127L12.3823 12.0891V13.845L12.9983 14.4752V11.4589L13.8608 10.5766V15.3575L14.4768 15.9878V9.94631L15.3393 9.06397V16.8701L15.9553 17.5004V8.43372L16.8178 7.55138V18.3827L17.4338 19.013V6.92114L18.2962 6.03879V19.8953L18.9123 20.5255V5.40855L19.7747 4.52621V21.4079L20.3908 22.0381V3.89596L21.2532 3.01362V22.9205Z" fill="#01C5E3"/>
<path d="M2.40254 21.4079V4.52621L1.7865 3.89596V22.0381L2.40254 21.4079Z" fill="#01C5E3"/>
<path d="M32.6906 0.560591L34.6705 3.90497H34.7472L36.7366 0.560591H39.0807L36.0846 5.46696L39.1478 10.3733H36.7605L34.7472 7.02416H34.6705L32.6571 10.3733H30.2794L33.3522 5.46696L30.3369 0.560591H32.6906Z" fill="white"/>
<path d="M43.6379 10.5171C42.8837 10.5171 42.2349 10.3574 41.6916 10.0379C41.1515 9.71531 40.7361 9.26812 40.4453 8.69635C40.1576 8.12458 40.0138 7.46656 40.0138 6.7223C40.0138 5.96846 40.1592 5.30725 40.4501 4.73867C40.7441 4.1669 41.1611 3.7213 41.7012 3.40188C42.2413 3.07926 42.8837 2.91795 43.6283 2.91795C44.2707 2.91795 44.8331 3.03454 45.3157 3.26772C45.7983 3.5009 46.1802 3.82831 46.4614 4.24995C46.7427 4.67159 46.8977 5.1667 46.9264 5.73528H44.9993C44.945 5.36794 44.8012 5.07247 44.5679 4.84887C44.3378 4.62208 44.0358 4.50868 43.6619 4.50868C43.3455 4.50868 43.069 4.59493 42.8325 4.76742C42.5993 4.93671 42.4171 5.18427 42.2861 5.51008C42.155 5.8359 42.0895 6.23039 42.0895 6.69355C42.0895 7.16311 42.1534 7.56239 42.2813 7.8914C42.4123 8.2204 42.5961 8.47115 42.8325 8.64364C43.069 8.81613 43.3455 8.90238 43.6619 8.90238C43.8952 8.90238 44.1045 8.85446 44.2898 8.75864C44.4784 8.66281 44.6334 8.52386 44.7548 8.34179C44.8795 8.15652 44.961 7.93452 44.9993 7.67578H46.9264C46.8945 8.23797 46.7411 8.73308 46.4662 9.16111C46.1946 9.58595 45.8191 9.91815 45.3397 10.1577C44.8603 10.3973 44.293 10.5171 43.6379 10.5171Z" fill="white"/>
<path d="M50.6135 0.560591V10.3733H48.5714V0.560591H50.6135Z" fill="white"/>
<path d="M57.3087 7.23977V3.01378H59.3509V10.3733H57.3902V9.03653H57.3135C57.1473 9.46776 56.8709 9.81433 56.4842 10.0763C56.1007 10.3382 55.6325 10.4692 55.0796 10.4692C54.5875 10.4692 54.1544 10.3574 53.7805 10.1338C53.4066 9.91016 53.1142 9.59233 52.9033 9.18028C52.6955 8.76822 52.5901 8.27471 52.5869 7.69974V3.01378H54.629V7.3356C54.6322 7.77001 54.7489 8.1134 54.979 8.36574C55.2091 8.61809 55.5175 8.74426 55.9042 8.74426C56.1502 8.74426 56.3803 8.68836 56.5944 8.57656C56.8086 8.46157 56.9811 8.29227 57.1122 8.06868C57.2464 7.84508 57.3119 7.56878 57.3087 7.23977Z" fill="white"/>
<path d="M67.4482 5.1124L65.5787 5.22739C65.5467 5.06768 65.478 4.92394 65.3725 4.79617C65.2671 4.6652 65.128 4.56139 64.9555 4.48473C64.7861 4.40487 64.5832 4.36494 64.3467 4.36494C64.0303 4.36494 63.7634 4.43202 63.5461 4.56618C63.3288 4.69715 63.2201 4.87283 63.2201 5.09323C63.2201 5.26892 63.2904 5.41745 63.4311 5.53883C63.5717 5.66021 63.813 5.75764 64.1549 5.8311L65.4876 6.09942C66.2034 6.24636 66.7371 6.48273 67.0887 6.80855C67.4402 7.13436 67.616 7.56239 67.616 8.09263C67.616 8.57497 67.4738 8.9982 67.1894 9.36235C66.9081 9.72649 66.5214 10.0108 66.0293 10.2152C65.5403 10.4165 64.9762 10.5171 64.3371 10.5171C63.3623 10.5171 62.5858 10.3142 62.0073 9.90857C61.4321 9.4997 61.0949 8.9439 60.9958 8.24117L63.0044 8.13576C63.0651 8.43282 63.2121 8.65961 63.4454 8.81613C63.6787 8.96946 63.9776 9.04612 64.3419 9.04612C64.6998 9.04612 64.9874 8.97744 65.2047 8.84009C65.4253 8.69954 65.5371 8.51907 65.5403 8.29866C65.5371 8.1134 65.4588 7.96167 65.3054 7.84348C65.152 7.7221 64.9155 7.62947 64.5959 7.56558L63.3208 7.31164C62.6017 7.1679 62.0664 6.91875 61.7149 6.56418C61.3666 6.20962 61.1924 5.75764 61.1924 5.20823C61.1924 4.73548 61.3202 4.32821 61.5759 3.98642C61.8347 3.64464 62.1975 3.38111 62.6641 3.19585C63.1338 3.01058 63.6835 2.91795 64.3131 2.91795C65.2431 2.91795 65.9749 3.11439 66.5086 3.50729C67.0455 3.90018 67.3587 4.43522 67.4482 5.1124Z" fill="white"/>
<path d="M69.2394 10.3733V3.01378H71.2815V10.3733H69.2394ZM70.2653 2.06508C69.9617 2.06508 69.7012 1.96446 69.4839 1.76323C69.2698 1.55879 69.1627 1.31443 69.1627 1.03015C69.1627 0.749052 69.2698 0.507886 69.4839 0.306649C69.7012 0.102216 69.9617 0 70.2653 0C70.5689 0 70.8277 0.102216 71.0419 0.306649C71.2592 0.507886 71.3678 0.749052 71.3678 1.03015C71.3678 1.31443 71.2592 1.55879 71.0419 1.76323C70.8277 1.96446 70.5689 2.06508 70.2653 2.06508Z" fill="white"/>
<path d="M80.1195 3.01378L77.5453 10.3733H75.2443L72.6701 3.01378H74.8272L76.3565 8.2795H76.4332L77.9576 3.01378H80.1195Z" fill="white"/>
<path d="M84.6204 10.5171C83.863 10.5171 83.211 10.3637 82.6646 10.0571C82.1213 9.74726 81.7026 9.30964 81.4086 8.74426C81.1146 8.17568 80.9676 7.50329 80.9676 6.72709C80.9676 5.97005 81.1146 5.30565 81.4086 4.73388C81.7026 4.16211 82.1165 3.71651 82.6502 3.39709C83.1871 3.07766 83.8167 2.91795 84.5389 2.91795C85.0247 2.91795 85.4769 2.99621 85.8955 3.15273C86.3174 3.30605 86.6849 3.53763 86.9981 3.84748C87.3145 4.15732 87.5606 4.54702 87.7363 5.01657C87.9121 5.48293 88 6.02915 88 6.65522V7.21581H81.7825V5.95089H86.0777C86.0777 5.65702 86.0138 5.39669 85.886 5.16989C85.7581 4.9431 85.5807 4.76582 85.3538 4.63805C85.1301 4.50709 84.8697 4.44161 84.5725 4.44161C84.2625 4.44161 83.9876 4.51348 83.7479 4.65722C83.5114 4.79776 83.3261 4.98782 83.1919 5.22739C83.0576 5.46377 82.9889 5.72729 82.9857 6.01797V7.2206C82.9857 7.58475 83.0528 7.89938 83.1871 8.1645C83.3245 8.42963 83.5178 8.63406 83.7671 8.7778C84.0164 8.92154 84.312 8.99341 84.654 8.99341C84.8809 8.99341 85.0886 8.96147 85.2771 8.89758C85.4657 8.8337 85.6271 8.73787 85.7613 8.6101C85.8955 8.48233 85.9978 8.32581 86.0681 8.14055L87.9569 8.26512C87.861 8.71871 87.6644 9.11479 87.3672 9.45338C87.0732 9.78878 86.6929 10.0507 86.2263 10.2392C85.7629 10.4244 85.2276 10.5171 84.6204 10.5171Z" fill="white"/>
<path d="M30.7444 14.0531H33.3042L36.0079 20.646H36.123L38.8266 14.0531H41.3865V23.8658H39.3731V17.4789H39.2916L36.751 23.8179H35.3799L32.8393 17.455H32.7578V23.8658H30.7444V14.0531Z" fill="white"/>
<path d="M53.4684 18.9595C53.4684 20.0295 53.2655 20.9399 52.8596 21.6906C52.457 22.4412 51.9073 23.0146 51.2106 23.4107C50.5171 23.8036 49.7373 24 48.8712 24C47.9988 24 47.2158 23.802 46.5223 23.4059C45.8288 23.0098 45.2807 22.4364 44.878 21.6858C44.4754 20.9351 44.274 20.0264 44.274 18.9595C44.274 17.8894 44.4754 16.979 44.878 16.2284C45.2807 15.4777 45.8288 14.906 46.5223 14.5131C47.2158 14.117 47.9988 13.9189 48.8712 13.9189C49.7373 13.9189 50.5171 14.117 51.2106 14.5131C51.9073 14.906 52.457 15.4777 52.8596 16.2284C53.2655 16.979 53.4684 17.8894 53.4684 18.9595ZM51.364 18.9595C51.364 18.2663 51.2601 17.6818 51.0524 17.2058C50.8479 16.7299 50.5586 16.3689 50.1847 16.123C49.8108 15.877 49.373 15.754 48.8712 15.754C48.3695 15.754 47.9317 15.877 47.5578 16.123C47.1838 16.3689 46.893 16.7299 46.6853 17.2058C46.4808 17.6818 46.3785 18.2663 46.3785 18.9595C46.3785 19.6526 46.4808 20.2372 46.6853 20.7131C46.893 21.1891 47.1838 21.55 47.5578 21.796C47.9317 22.0419 48.3695 22.1649 48.8712 22.1649C49.373 22.1649 49.8108 22.0419 50.1847 21.796C50.5586 21.55 50.8479 21.1891 51.0524 20.7131C51.2601 20.2372 51.364 19.6526 51.364 18.9595Z" fill="white"/>
<path d="M64.5677 14.0531V23.8658H62.7748L58.5036 17.6898H58.4317V23.8658H56.356V14.0531H58.1776L62.4153 20.2244H62.5016V14.0531H64.5677Z" fill="white"/>
<path d="M67.6325 23.8658V14.0531H74.2479V15.7636H69.7082V18.1018H73.9076V19.8123H69.7082V22.1553H74.2671V23.8658H67.6325Z" fill="white"/>
<path d="M76.6728 14.0531H78.9978L81.2365 18.2791H81.3324L83.5711 14.0531H85.896L82.3151 20.3969V23.8658H80.2538V20.3969L76.6728 14.0531Z" fill="white"/>
</svg>
